<svg xmlns="http://www.w3.org/2000/svg" viewBox="0 0 512 512" fill="#667eea">
  <rect width="512" height="512" rx="100" fill="#667eea"/>
  <path fill="#fff" d="M256 96c-88.4 0-160 71.6-160 160s71.6 160 160 160 160-71.6 160-160S344.4 96 256 96zm-16 287.4c-63.2-7.8-112-61.6-112-126.8 0-9.9 1.3-19.4 3.4-28.6L192 288v16c0 17.6 14.4 32 32 32v30.8zm110.4-40.6c-4.2-13-16-22.2-30.4-22.2h-16v-48c0-8.8-7.2-16-16-16h-96v-32h32c8.8 0 16-7.2 16-16v-32h32c17.6 0 32-14.4 32-32v-6.6c46.9 19 80 65 80 118.6 0 33.3-12.8 63.5-33.6 86.2z"/>
</svg>
